<?xml version="1.0" encoding="UTF-8" standalone="no"?>
<!DOCTYPE svg PUBLIC "-//W3C//DTD SVG 1.1//EN" "http://www.w3.org/Graphics/SVG/1.1/DTD/svg11.dtd">
<svg width="100%" height="100%" viewBox="0 0 200 200" version="1.1" xmlns="http://www.w3.org/2000/svg" xmlns:xlink="http://www.w3.org/1999/xlink" xml:space="preserve" xmlns:serif="http://www.serif.com/" style="fill-rule:evenodd;clip-rule:evenodd;stroke-linejoin:round;stroke-miterlimit:2;">
    <rect x="0" y="0" width="200" height="200" style="fill:rgb(246,245,244);"/>
    <g>
        <g transform="matrix(0.312129,0,0,0.312129,9.9043,19.5491)">
            <path d="M130.833,178.795L344.833,93.426L356.167,121.838L142.167,207.206L130.833,178.795ZM427.164,149.5L427.164,387L396.576,387L396.576,149.5L427.164,149.5ZM135.541,383.582L93.614,264.582L122.465,254.418L164.391,373.418L135.541,383.582ZM363.035,451.393L234.536,451.692L234.464,421.104L362.964,420.805L363.035,451.393Z" style="fill:rgb(45,0,69);fill-opacity:0.62;"/>
        </g>
        <g transform="matrix(0.312129,0,0,0.312129,9.9043,19.5491)">
            <path d="M196.568,381.268L368.568,128.268L385.432,139.732L213.432,392.732L196.568,381.268Z" style="fill:rgb(45,0,69);fill-opacity:0.84;"/>
        </g>
        <g transform="matrix(0.312129,0,0,0.312129,9.9043,19.5491)">
            <path d="M371.151,420.351L124.151,247.351L135.849,230.649L382.849,403.649L371.151,420.351Z" style="fill:rgb(45,0,69);fill-opacity:0.28;"/>
        </g>
        <g transform="matrix(0.312129,0,0,0.312129,9.9043,19.5491)">
            <path d="M91.734,178.637C73.266,178.637 58.294,193.608 58.294,212.076C58.294,230.545 73.266,245.516 91.734,245.516C110.202,245.516 125.174,230.545 125.174,212.076C125.174,193.608 110.202,178.637 91.734,178.637ZM27.706,212.076C27.706,176.715 56.372,148.048 91.734,148.048C127.096,148.048 155.762,176.715 155.762,212.076C155.762,247.438 127.096,276.104 91.734,276.104C56.372,276.104 27.706,247.438 27.706,212.076Z" style="fill:rgb(225,0,160);"/>
        </g>
        <g transform="matrix(0.312129,0,0,0.312129,9.9043,19.5491)">
            <path d="M412.037,402.172C394.002,402.172 379.382,416.792 379.382,434.827C379.382,452.861 394.002,467.481 412.037,467.481C430.071,467.481 444.691,452.861 444.691,434.827C444.691,416.792 430.071,402.172 412.037,402.172ZM348.794,434.827C348.794,399.899 377.109,371.584 412.037,371.584C446.965,371.584 475.28,399.899 475.28,434.827C475.28,469.755 446.965,498.07 412.037,498.07C377.109,498.07 348.794,469.755 348.794,434.827Z" style="fill:rgb(169,0,192);"/>
        </g>
        <g transform="matrix(0.312129,0,0,0.312129,9.9043,19.5491)">
            <path d="M171.304,387.129C144.321,387.129 122.448,409.003 122.448,435.986C122.448,462.968 144.321,484.842 171.304,484.842C198.287,484.842 220.16,462.968 220.16,435.986C220.16,409.003 198.287,387.129 171.304,387.129ZM91.86,435.986C91.86,392.11 127.428,356.541 171.304,356.541C215.18,356.541 250.748,392.11 250.748,435.986C250.748,479.862 215.18,515.43 171.304,515.43C127.428,515.43 91.859,479.862 91.859,435.986Z" style="fill:rgb(255,25,88);"/>
        </g>
        <g transform="matrix(0.312129,0,0,0.312129,9.9043,19.5491)">
            <path d="M411.87,34.294C384.888,34.294 363.014,56.168 363.014,83.15C363.014,110.133 384.888,132.006 411.87,132.006C438.853,132.006 460.727,110.133 460.727,83.15C460.727,56.168 438.853,34.294 411.87,34.294ZM332.426,83.15C332.426,39.274 367.994,3.706 411.87,3.706C455.746,3.706 491.315,39.274 491.315,83.15C491.315,127.026 455.746,162.595 411.87,162.595C367.994,162.595 332.426,127.026 332.426,83.15Z" style="fill:rgb(245,111,0);"/>
        </g>
    </g>
</svg>
