<?xml version="1.0" encoding="UTF-8" standalone="no"?><!DOCTYPE svg PUBLIC "-//W3C//DTD SVG 1.1//EN" "http://www.w3.org/Graphics/SVG/1.1/DTD/svg11.dtd"><svg width="100%" height="100%" viewBox="0 0 395 153" version="1.1" xmlns="http://www.w3.org/2000/svg" xmlns:xlink="http://www.w3.org/1999/xlink" xml:space="preserve" xmlns:serif="http://www.serif.com/" style="fill-rule:evenodd;clip-rule:evenodd;stroke-linejoin:round;stroke-miterlimit:0;"><rect id="Tetralogical-logo-RGB" x="0.495" y="0" width="393.993" height="153" style="fill:none;"/><g><g><path d="M188.027,45.632l0,-9.777l-40.6,0l0,9.777l14.733,0l0,35.712l11.134,0l0,-35.712l14.733,0Z" style="fill:#420065;fill-rule:nonzero;"/><path d="M221.295,64.302c-0.204,-11.134 -7.944,-18.059 -17.584,-18.059c-9.913,0 -18.06,7.332 -18.06,18.059c0,10.795 8.147,18.06 17.992,18.06c7.807,0 13.986,-3.463 16.905,-10.659l-9.641,-1.969c-1.833,3.327 -4.752,3.938 -7.264,3.938c-3.667,0 -6.45,-2.512 -7.333,-6.586l24.985,0l0,-2.784Zm-17.584,-9.233c3.123,0 5.838,1.697 6.857,5.363l-14.054,0c1.018,-3.462 4.141,-5.363 7.197,-5.363Z" style="fill:#420065;fill-rule:nonzero;"/><path d="M249.674,71.295c-1.426,0.815 -3.462,1.358 -4.956,1.358c-2.851,0 -4.549,-1.425 -4.549,-4.956l0,-11.813l10.048,0l0,-8.623l-10.048,0l0,-10.048l-10.863,0l0,10.048l-6.178,0l0,8.623l6.178,0l0,12.899c0,8.962 5.092,13.579 13.579,13.579c3.87,0 6.653,-1.086 9.301,-2.512l-2.512,-8.555Z" style="fill:#420065;fill-rule:nonzero;"/><path d="M278.936,46.786c-5.567,0 -9.301,2.919 -11.745,6.993l0,-6.518l-10.863,0l0,34.083l10.863,0l0,-10.66c0,-8.826 4.141,-12.764 11.745,-12.764l1.969,0l0.475,-10.862c-0.814,-0.204 -1.493,-0.272 -2.444,-0.272Z" style="fill:#420065;fill-rule:nonzero;"/><path d="M321.641,47.261l-10.863,0l0,2.716c-2.648,-2.376 -6.178,-3.734 -10.591,-3.734c-9.03,0 -16.634,7.332 -16.634,18.059c0,10.795 7.604,18.06 16.634,18.06c4.413,0 7.943,-1.358 10.591,-3.734l0,2.716l10.863,0l0,-34.083Zm-19.214,25.868c-4.752,0 -8.215,-3.531 -8.215,-8.827c0,-5.227 3.463,-8.826 8.215,-8.826c4.413,0 8.351,3.599 8.351,8.826c0,5.296 -3.938,8.827 -8.351,8.827Z" style="fill:#420065;fill-rule:nonzero;"/><path d="M188.672,122.445l-15.552,0l0,-35.712l-11.202,0l0,45.488l26.754,0l0,-9.776Z" style="fill:#420065;fill-rule:nonzero;"/><path d="M210.044,97.257c-10.32,0 -18.875,7.196 -18.875,17.923c0,10.795 8.555,17.992 18.875,17.992c10.116,0 18.67,-7.197 18.67,-17.992c0,-10.727 -8.554,-17.923 -18.67,-17.923Zm0,26.749c-4.413,0 -8.419,-3.462 -8.419,-8.826c0,-5.295 4.006,-8.826 8.419,-8.826c4.209,0 8.215,3.531 8.215,8.826c0,5.364 -4.006,8.826 -8.215,8.826Z" style="fill:#420065;fill-rule:nonzero;"/><path d="M269.45,98.139l-10.659,0l0,2.241c-2.444,-2.105 -5.839,-3.259 -10.252,-3.259c-8.894,0 -16.43,6.993 -16.43,16.43c0,9.641 7.536,16.702 16.43,16.702c4.413,0 7.808,-1.155 10.252,-3.259l0,0.95c0,5.364 -3.53,8.283 -8.487,8.283c-3.53,0 -5.431,-1.154 -8.011,-4.209l-9.03,4.888c3.327,5.499 9.302,8.215 17.109,8.215c11.067,0 19.078,-5.771 19.078,-16.294l0,-30.688Zm-18.603,23.22c-4.752,0 -8.147,-3.259 -8.147,-7.808c0,-4.549 3.395,-7.74 8.147,-7.74c4.346,0 7.944,3.191 7.944,7.74c0,4.549 -3.598,7.808 -7.944,7.808Z" style="fill:#420065;fill-rule:nonzero;"/><path d="M283.368,81.913c-3.666,0 -6.246,2.851 -6.246,6.178c0,3.462 2.58,6.042 6.246,6.042c3.666,0 6.314,-2.58 6.314,-6.042c0,-3.327 -2.648,-6.178 -6.314,-6.178Zm5.432,50.308l0,-34.082l-10.863,0l0,34.082l10.863,0Z" style="fill:#420065;fill-rule:nonzero;"/><path d="M313.581,123.735c-4.889,0 -8.147,-3.531 -8.147,-8.555c0,-4.956 3.258,-8.554 8.147,-8.554c3.462,0 6.246,1.901 7.196,6.042l10.184,-2.444c-1.901,-8.011 -9.097,-13.103 -17.38,-13.103c-10.184,0 -18.603,7.332 -18.603,18.059c0,10.795 8.419,18.06 18.603,18.06c8.486,0 15.683,-5.228 17.38,-13.307l-9.98,-2.173c-1.154,4.142 -3.938,5.975 -7.4,5.975Z" style="fill:#420065;fill-rule:nonzero;"/><path d="M372.444,98.139l-10.863,0l0,2.716c-2.648,-2.376 -6.178,-3.734 -10.591,-3.734c-9.03,0 -16.634,7.332 -16.634,18.059c0,10.795 7.604,18.06 16.634,18.06c4.413,0 7.943,-1.358 10.591,-3.734l0,2.715l10.863,0l0,-34.082Zm-19.214,25.867c-4.752,0 -8.215,-3.53 -8.215,-8.826c0,-5.227 3.463,-8.826 8.215,-8.826c4.413,0 8.351,3.599 8.351,8.826c0,5.296 -3.938,8.826 -8.351,8.826Z" style="fill:#420065;fill-rule:nonzero;"/><rect x="380.32" y="83.338" width="10.863" height="48.883" style="fill:#420065;fill-rule:nonzero;"/></g><g id="Tetralogical-Logo" serif:id="Tetralogical Logo"><path id="Mask" d="M95.749,19.157c-0.389,1.508 -0.596,3.089 -0.596,4.718c0,10.418 8.458,18.876 18.875,18.876c3.437,0 6.661,-0.921 9.438,-2.529l0,76.92c-2.505,-2.244 -5.813,-3.609 -9.438,-3.609c-7.813,0 -14.156,6.343 -14.156,14.157c0,3.624 1.365,6.932 3.608,9.437l-43.888,0c1.608,-2.776 2.529,-6 2.529,-9.437c0,-10.418 -8.458,-18.876 -18.875,-18.876c-10.418,0 -18.876,8.458 -18.876,18.876c0,3.437 0.921,6.661 2.529,9.437l-11.966,0l0,-62.151c1.476,0.522 3.064,0.807 4.718,0.807c7.814,0 14.157,-6.344 14.157,-14.157c0,-7.813 -6.343,-14.156 -14.157,-14.156c-1.654,0 -3.242,0.284 -4.718,0.806l0,-29.119l80.816,0Z" style="fill:none;"/><clipPath id="_clip1"><path d="M95.749,19.157c-0.389,1.508 -0.596,3.089 -0.596,4.718c0,10.418 8.458,18.876 18.875,18.876c3.437,0 6.661,-0.921 9.438,-2.529l0,76.92c-2.505,-2.244 -5.813,-3.609 -9.438,-3.609c-7.813,0 -14.156,6.343 -14.156,14.157c0,3.624 1.365,6.932 3.608,9.437l-43.888,0c1.608,-2.776 2.529,-6 2.529,-9.437c0,-10.418 -8.458,-18.876 -18.875,-18.876c-10.418,0 -18.876,8.458 -18.876,18.876c0,3.437 0.921,6.661 2.529,9.437l-11.966,0l0,-62.151c1.476,0.522 3.064,0.807 4.718,0.807c7.814,0 14.157,-6.344 14.157,-14.157c0,-7.813 -6.343,-14.156 -14.157,-14.156c-1.654,0 -3.242,0.284 -4.718,0.806l0,-29.119l80.816,0Z"/></clipPath><g clip-path="url(#_clip1)"><path d="M19.651,61.626l23.334,66.229l71.043,-0.165l0,-103.815l-94.377,37.751Z" style="fill:none;stroke:#2d0045;stroke-opacity:0.618421;stroke-width:9.44px;"/><path d="M114.028,23.875l-70.782,103.815" style="fill:none;stroke:#2d0045;stroke-opacity:0.842105;stroke-width:6.12px;"/><path d="M19.651,61.626l94.377,66.064" style="fill:none;stroke:#2d0045;stroke-opacity:0.278947;stroke-width:6.12px;"/></g><g id="Nodes"><circle cx="19.834" cy="61.809" r="14.339" style="fill:none;stroke:#e100a0;stroke-width:9.44px;"/><circle cx="114.077" cy="127.349" r="14.108" style="fill:none;stroke:#a900c0;stroke-width:9.44px;"/><circle cx="43.246" cy="127.69" r="18.875" style="fill:none;stroke:#ff1958;stroke-width:9.44px;"/><circle cx="114.028" cy="23.875" r="18.875" style="fill:none;stroke:#f56f00;stroke-width:9.44px;"/></g></g></g></svg>